<svg width="725" height="249" viewBox="0 0 725 249" fill="none" xmlns="http://www.w3.org/2000/svg">
<g clip-path="url(#clip0_17_35)">
<path d="M161.432 123.985C151.17 116.768 138.02 115.026 126.231 119.316C114.442 123.605 105.494 133.39 102.264 145.518C99.035 157.637 101.943 170.582 110.046 180.164C118.138 189.745 130.413 194.773 142.901 193.616C155.4 192.458 166.537 185.261 172.731 174.357C178.937 163.444 179.413 150.196 174.015 138.865C173.383 137.62 173.276 136.17 173.733 134.847C174.181 133.525 175.143 132.445 176.408 131.842C177.672 131.239 179.121 131.171 180.435 131.657C181.748 132.134 182.808 133.126 183.372 134.41C190.249 148.825 189.636 165.682 181.738 179.561C173.85 193.441 159.668 202.594 143.766 204.052C127.863 205.521 112.252 199.121 101.951 186.914C91.6603 174.708 87.9836 158.239 92.0981 142.814C96.222 127.388 107.622 114.948 122.64 109.5C137.648 104.063 154.368 106.3 167.421 115.502C169.765 117.155 170.319 120.394 168.666 122.738C167.012 125.072 163.773 125.637 161.429 123.983L161.432 123.985ZM139.255 181.566C148.486 181.576 156.938 176.401 161.12 168.182C162.443 165.634 161.441 162.492 158.893 161.179C156.345 159.856 153.203 160.858 151.89 163.406C149.468 168.153 144.585 171.129 139.255 171.129C133.935 171.129 129.052 168.153 126.63 163.406C126.027 162.142 124.938 161.169 123.605 160.722C122.282 160.265 120.823 160.372 119.578 161.014C118.333 161.646 117.39 162.764 116.981 164.107C116.573 165.449 116.719 166.898 117.39 168.124C121.563 176.372 130.015 181.566 139.255 181.566ZM125.745 146.783V140.062C125.745 137.193 123.42 134.878 120.561 134.878C117.692 134.878 115.367 137.193 115.367 140.062V146.676C115.367 149.545 117.692 151.86 120.561 151.86C123.42 151.86 125.745 149.545 125.745 146.676V146.783ZM163.145 140.062C163.145 137.193 160.83 134.878 157.961 134.878C155.091 134.878 152.776 137.193 152.776 140.062V146.676C152.776 149.545 155.091 151.86 157.961 151.86C160.83 151.86 163.145 149.545 163.145 146.676V140.062ZM230.579 77.5506V89.2516H230.589C230.589 90.623 230.034 91.9458 229.062 92.9186C228.089 93.8912 226.776 94.4359 225.395 94.4359H111.146L95.4278 103.754C94.6399 104.211 93.7451 104.454 92.8307 104.454H58.2521V200.865C58.2521 203.617 59.3512 206.253 61.2966 208.198C63.242 210.144 65.8777 211.233 68.6304 211.233H209.888C212.641 211.233 215.277 210.144 217.222 208.198C219.167 206.253 220.257 203.617 220.257 200.865V109.746C220.257 106.876 222.581 104.552 225.451 104.552C228.31 104.552 230.635 106.876 230.635 109.746V200.865C230.635 206.36 228.446 211.642 224.556 215.532C220.665 219.423 215.384 221.611 209.888 221.611H68.6304C57.1724 221.611 47.8837 212.322 47.8837 200.865V192.091H41.2698C28.6253 192.082 18.3735 181.84 18.3638 169.195V50.2976C18.3735 37.6531 28.6253 27.4013 41.2698 27.3916H178.22C190.864 27.4013 201.106 37.6531 201.116 50.2976V56.9115H209.889C215.385 56.9115 220.666 59.0903 224.557 62.9906C228.448 66.8812 230.636 72.1531 230.636 77.6582L230.579 77.5506ZM68.5746 56.8039H190.749V50.2968C190.749 46.9704 189.426 43.7799 187.072 41.4358C184.728 39.082 181.538 37.7688 178.221 37.7688H41.271C34.3458 37.7688 28.7433 43.3713 28.7433 50.2965V169.194C28.7433 172.511 30.0563 175.701 32.4103 178.045C34.7544 180.399 37.9448 181.722 41.2712 181.722H47.8851V77.6574C47.8851 66.1994 57.1741 56.9107 68.6318 56.9107L68.5746 56.8039ZM220.203 77.5506H220.213C220.213 74.7979 219.123 72.1619 217.178 70.2168C215.233 68.2716 212.587 67.1819 209.835 67.1819H68.6341C62.9051 67.1819 58.2558 71.8216 58.2558 77.5506V93.8621L91.4325 93.8718L107.151 84.7678C107.939 84.3107 108.833 84.0675 109.748 84.0675H220.241L220.203 77.5506Z" fill="black"/>
<g filter="url(#filter0_d_17_35)">
<path d="M327.904 92.704C336.709 92.704 343.539 94.68 348.392 98.632C353.315 102.515 355.776 108.131 355.776 115.48C355.776 125.464 351.304 132.432 342.36 136.384L358.584 167.272V168H341.736L327.8 140.44H315.528V168H299.928V92.704H327.904ZM315.528 127.752H327.904C331.856 127.752 334.872 126.781 336.952 124.84C339.032 122.829 340.072 120.091 340.072 116.624C340.072 113.088 339.032 110.315 336.952 108.304C334.941 106.293 331.925 105.288 327.904 105.288H315.528V127.752ZM389.762 176.424C388.375 180.376 386.33 183.704 383.626 186.408C380.991 189.181 377.074 190.568 371.874 190.568C370.626 190.568 369.482 190.464 368.442 190.256C367.402 190.117 366.327 189.909 365.218 189.632V178.296H367.506C370.418 178.296 372.567 177.845 373.954 176.944C375.341 176.043 376.415 174.517 377.178 172.368L378.842 168.104L359.186 112.048H375.41L385.706 146.576L396.002 112.048H412.122L389.762 176.424ZM464.238 168H450.198L449.782 162.28C446.177 166.787 441.116 169.04 434.598 169.04C428.705 169.04 424.129 167.341 420.87 163.944C417.612 160.547 415.982 155.277 415.982 148.136V112.048H431.062V148.24C431.062 151.221 431.756 153.405 433.142 154.792C434.598 156.179 436.505 156.872 438.862 156.872C443.924 156.872 447.39 155.104 449.262 151.568V112.048H464.238V168ZM473.568 92.704H488.648V118.08C490.52 115.792 492.704 114.059 495.2 112.88C497.766 111.632 500.504 111.008 503.416 111.008C515.758 111.008 521.928 118.219 521.928 132.64V168H506.848V132.536C506.848 129.139 506.12 126.747 504.664 125.36C503.208 123.973 500.99 123.28 498.008 123.28C493.64 123.28 490.52 124.909 488.648 128.168V168H473.568V92.704ZM580.138 147.408L587.418 112.048H601.874L587.73 168H575.042L564.538 132.952L553.93 168H541.554L527.202 112.048H541.658L548.938 147.408L559.13 112.048H569.946L580.138 147.408ZM637.902 130.664C637.902 127.96 637.209 125.845 635.822 124.32C634.435 122.795 632.39 122.032 629.686 122.032C627.19 122.032 625.249 122.656 623.862 123.904C622.475 125.083 621.782 126.712 621.782 128.792H606.702C606.702 125.533 607.673 122.552 609.614 119.848C611.625 117.144 614.433 114.995 618.038 113.4C621.643 111.805 625.803 111.008 630.518 111.008C637.243 111.008 642.651 112.707 646.742 116.104C650.902 119.501 652.982 124.389 652.982 130.768V154.376C652.982 157.427 653.155 159.923 653.502 161.864C653.918 163.805 654.507 165.573 655.27 167.168V168H639.982C639.566 167.029 639.081 165.365 638.526 163.008C634.851 167.029 630.171 169.04 624.486 169.04C620.881 169.04 617.622 168.347 614.71 166.96C611.867 165.504 609.614 163.493 607.95 160.928C606.286 158.363 605.454 155.485 605.454 152.296C605.454 146.333 607.638 141.792 612.006 138.672C616.443 135.483 622.891 133.888 631.35 133.888H637.902V130.664ZM627.814 157.6C630.102 157.6 632.113 157.08 633.846 156.04C635.649 154.931 637.001 153.613 637.902 152.088V142.624H631.87C628.057 142.624 625.214 143.421 623.342 145.016C621.47 146.541 620.534 148.587 620.534 151.152C620.534 153.024 621.193 154.584 622.51 155.832C623.827 157.011 625.595 157.6 627.814 157.6Z" fill="black"/>
</g>
</g>
<defs>
<filter id="filter0_d_17_35" x="295.928" y="92.704" width="363.342" height="105.864" filterUnits="userSpaceOnUse" color-interpolation-filters="sRGB">
<feFlood flood-opacity="0" result="BackgroundImageFix"/>
<feColorMatrix in="SourceAlpha" type="matrix" values="0 0 0 0 0 0 0 0 0 0 0 0 0 0 0 0 0 0 127 0" result="hardAlpha"/>
<feOffset dy="4"/>
<feGaussianBlur stdDeviation="2"/>
<feComposite in2="hardAlpha" operator="out"/>
<feColorMatrix type="matrix" values="0 0 0 0 0 0 0 0 0 0 0 0 0 0 0 0 0 0 0.25 0"/>
<feBlend mode="normal" in2="BackgroundImageFix" result="effect1_dropShadow_17_35"/>
<feBlend mode="normal" in="SourceGraphic" in2="effect1_dropShadow_17_35" result="shape"/>
</filter>
<clipPath id="clip0_17_35">
<rect width="725" height="249" fill="white"/>
</clipPath>
</defs>
</svg>
