<svg width="725" height="249" viewBox="0 0 725 249" fill="none" xmlns="http://www.w3.org/2000/svg">
<g clip-path="url(#clip0_17_19)">
<path d="M161.432 123.985C151.17 116.768 138.02 115.026 126.231 119.316C114.442 123.605 105.494 133.39 102.264 145.518C99.035 157.637 101.943 170.582 110.046 180.164C118.138 189.745 130.413 194.773 142.901 193.616C155.4 192.458 166.537 185.26 172.731 174.357C178.937 163.444 179.413 150.196 174.015 138.865C173.383 137.62 173.276 136.17 173.733 134.847C174.181 133.525 175.143 132.445 176.408 131.842C177.672 131.239 179.121 131.171 180.435 131.657C181.748 132.134 182.808 133.126 183.372 134.41C190.249 148.825 189.636 165.682 181.738 179.561C173.85 193.441 159.668 202.594 143.766 204.052C127.863 205.521 112.252 199.121 101.951 186.914C91.6603 174.708 87.9836 158.239 92.0981 142.814C96.222 127.388 107.622 114.948 122.64 109.5C137.648 104.063 154.368 106.3 167.421 115.502C169.765 117.155 170.319 120.394 168.666 122.738C167.012 125.072 163.773 125.637 161.429 123.983L161.432 123.985ZM139.255 181.566C148.486 181.576 156.938 176.401 161.12 168.182C162.443 165.634 161.441 162.492 158.893 161.179C156.345 159.856 153.5 161 151.89 163.406L156 163.5L156.5 163C156.5 163 158.832 161.139 157.5 160.691C156.177 160.234 120.823 160.372 119.578 161.014C118.333 161.646 117.39 162.764 116.981 164.107C116.573 165.449 116.719 166.898 117.39 168.124C121.563 176.372 130.015 181.566 139.255 181.566ZM125.745 146.783V140.062C125.745 137.193 123.42 134.878 120.561 134.878C117.692 134.878 115.367 137.193 115.367 140.062V146.676C115.367 149.545 117.692 151.86 120.561 151.86C123.42 151.86 125.745 149.545 125.745 146.676V146.783ZM163.145 140.062C163.145 137.193 160.83 134.878 157.961 134.878C155.091 134.878 152.776 137.193 152.776 140.062V146.676C152.776 149.545 155.091 151.86 157.961 151.86C160.83 151.86 163.145 149.545 163.145 146.676V140.062ZM230.579 77.5505V89.2515H230.589C230.589 90.623 230.034 91.9457 229.062 92.9186C228.089 93.8912 226.776 94.4359 225.395 94.4359H111.146L95.4278 103.754C94.6399 104.211 93.7451 104.454 92.8307 104.454H58.2521V200.865C58.2521 203.617 59.3512 206.253 61.2966 208.198C63.242 210.144 65.8777 211.233 68.6304 211.233H209.888C212.641 211.233 215.277 210.144 217.222 208.198C219.167 206.253 220.257 203.617 220.257 200.865V109.746C220.257 106.876 222.581 104.552 225.451 104.552C228.31 104.552 230.635 106.876 230.635 109.746V200.865C230.635 206.36 228.446 211.642 224.556 215.532C220.665 219.423 215.384 221.611 209.888 221.611H68.6304C57.1724 221.611 47.8837 212.322 47.8837 200.865V192.091H41.2698C28.6253 192.082 18.3735 181.84 18.3638 169.195V50.2975C18.3735 37.6531 28.6253 27.4013 41.2698 27.3915H178.22C190.864 27.4013 201.106 37.6531 201.116 50.2975V56.9115H209.889C215.385 56.9115 220.666 59.0902 224.557 62.9906C228.448 66.8812 230.636 72.153 230.636 77.6582L230.579 77.5505ZM68.5746 56.8038H190.749V50.2967C190.749 46.9703 189.426 43.7799 187.072 41.4358C184.728 39.082 181.538 37.7688 178.221 37.7688H41.271C34.3458 37.7688 28.7433 43.3713 28.7433 50.2965V169.194C28.7433 172.511 30.0563 175.701 32.4103 178.045C34.7544 180.399 37.9448 181.722 41.2712 181.722H47.8851V77.6573C47.8851 66.1994 57.1741 56.9107 68.6318 56.9107L68.5746 56.8038ZM220.203 77.5505H220.213C220.213 74.7978 219.123 72.1619 217.178 70.2167C215.233 68.2715 212.587 67.1819 209.835 67.1819H68.6341C62.9051 67.1819 58.2558 71.8215 58.2558 77.5505V93.862L91.4325 93.8718L107.151 84.7678C107.939 84.3107 108.833 84.0675 109.748 84.0675H220.241L220.203 77.5505Z" fill="#3498DB"/>
<g filter="url(#filter0_d_17_19)">
<path d="M363.264 111.112H374.288V122.76H363.264V149.904H349.64V86.464H363.264V111.112ZM366.072 172.784H307.312V143.352H320.832V161.656H366.072V172.784ZM319.064 91.872C323.501 91.872 327.523 92.8427 331.128 94.784C334.733 96.7253 337.576 99.4293 339.656 102.896C341.736 106.363 342.776 110.245 342.776 114.544C342.776 118.773 341.736 122.587 339.656 125.984C337.576 129.381 334.733 132.085 331.128 134.096C327.523 136.037 323.501 137.008 319.064 137.008C314.696 137.008 310.709 136.037 307.104 134.096C303.499 132.085 300.621 129.381 298.472 125.984C296.392 122.517 295.352 118.704 295.352 114.544C295.352 110.245 296.392 106.363 298.472 102.896C300.621 99.4293 303.499 96.7253 307.104 94.784C310.709 92.8427 314.696 91.872 319.064 91.872ZM319.064 104.144C316.152 104.144 313.691 105.08 311.68 106.952C309.739 108.755 308.768 111.285 308.768 114.544C308.768 117.664 309.739 120.16 311.68 122.032C313.691 123.835 316.152 124.736 319.064 124.736C322.115 124.736 324.611 123.835 326.552 122.032C328.493 120.16 329.464 117.664 329.464 114.544C329.464 111.285 328.493 108.755 326.552 106.952C324.611 105.08 322.115 104.144 319.064 104.144ZM394.2 124.424C400.44 124.285 405.848 124.043 410.424 123.696C415.069 123.349 419.68 122.725 424.256 121.824L425.608 133.16C419.992 134.2 414.307 134.928 408.552 135.344C402.797 135.691 395.795 135.864 387.544 135.864H380.264V90.728H394.2V124.424ZM448.072 138.672H434.136V119.016H414.896V108.512H434.136V104.144H414.896V93.432H434.136V86.464H448.072V138.672ZM418.432 139.92C427.723 139.92 435.003 141.445 440.272 144.496C445.611 147.547 448.28 151.741 448.28 157.08C448.28 162.488 445.611 166.717 440.272 169.768C435.003 172.819 427.723 174.344 418.432 174.344C409.211 174.344 401.965 172.819 396.696 169.768C391.427 166.717 388.792 162.488 388.792 157.08C388.792 151.741 391.427 147.547 396.696 144.496C401.965 141.445 409.211 139.92 418.432 139.92ZM418.432 150.84C413.093 150.84 409.107 151.36 406.472 152.4C403.837 153.371 402.52 154.931 402.52 157.08C402.52 159.229 403.837 160.824 406.472 161.864C409.107 162.904 413.093 163.424 418.432 163.424C423.84 163.424 427.861 162.904 430.496 161.864C433.131 160.824 434.448 159.229 434.448 157.08C434.448 154.931 433.131 153.371 430.496 152.4C427.861 151.36 423.84 150.84 418.432 150.84ZM523.728 120.056H535.688V131.6H523.728V174.24H510.104V86.464H523.728V120.056ZM505.32 110.488H455.4V99.152H473.704V87.92H487.536V99.152H505.32V110.488ZM480.464 114.336C484.693 114.336 488.507 115.237 491.904 117.04C495.301 118.843 497.971 121.373 499.912 124.632C501.853 127.891 502.824 131.565 502.824 135.656C502.824 139.747 501.853 143.387 499.912 146.576C497.971 149.765 495.301 152.261 491.904 154.064C488.507 155.867 484.693 156.768 480.464 156.768C476.304 156.768 472.525 155.867 469.128 154.064C465.731 152.261 463.061 149.765 461.12 146.576C459.179 143.317 458.208 139.677 458.208 135.656C458.208 131.565 459.179 127.925 461.12 124.736C463.061 121.477 465.731 118.947 469.128 117.144C472.525 115.272 476.304 114.336 480.464 114.336ZM480.464 125.776C477.829 125.776 475.68 126.677 474.016 128.48C472.352 130.213 471.52 132.605 471.52 135.656C471.52 138.707 472.317 141.064 473.912 142.728C475.576 144.392 477.76 145.224 480.464 145.224C483.237 145.224 485.456 144.392 487.12 142.728C488.784 141.064 489.616 138.707 489.616 135.656C489.616 132.605 488.749 130.213 487.016 128.48C485.352 126.677 483.168 125.776 480.464 125.776ZM564.336 107.368C564.336 115.549 565.376 122.829 567.456 129.208C569.605 135.517 573.384 140.509 578.792 144.184L571.512 155.208C565.133 151.187 560.522 144.704 557.68 135.76C554.49 145.813 549.464 152.955 542.6 157.184L534.384 146.576C545.338 139.573 550.816 126.712 550.816 107.992V93.64H564.336V107.368ZM610.616 174.24H597.304V86.464H610.616V174.24ZM592.624 170.184H579.728V126.712H570.056V115.376H579.728V87.504H592.624V170.184ZM694.592 164.256H616.488V152.816H633.128V132.12C629.938 129.971 627.477 127.371 625.744 124.32C624.01 121.269 623.144 117.872 623.144 114.128C623.144 109.413 624.53 105.253 627.304 101.648C630.077 98.0427 633.89 95.2693 638.744 93.328C643.666 91.3173 649.248 90.312 655.488 90.312C661.728 90.312 667.309 91.3173 672.232 93.328C677.154 95.2693 681.002 98.0427 683.776 101.648C686.618 105.253 688.04 109.413 688.04 114.128C688.04 117.872 687.173 121.269 685.44 124.32C683.706 127.301 681.245 129.867 678.056 132.016V152.816H694.592V164.256ZM655.488 101.232C649.664 101.232 645.088 102.376 641.76 104.664C638.432 106.883 636.768 110.037 636.768 114.128C636.768 118.219 638.432 121.408 641.76 123.696C645.157 125.984 649.733 127.128 655.488 127.128C661.242 127.128 665.818 125.984 669.216 123.696C672.682 121.408 674.416 118.219 674.416 114.128C674.416 110.037 672.682 106.883 669.216 104.664C665.818 102.376 661.242 101.232 655.488 101.232ZM664.224 152.816V137.216C661.728 137.701 658.816 137.944 655.488 137.944C652.229 137.944 649.352 137.701 646.856 137.216V152.816H664.224ZM701.192 92.704H717L715.336 144.808H702.856L701.192 92.704ZM700.776 160.928C700.776 158.64 701.538 156.733 703.064 155.208C704.589 153.683 706.634 152.92 709.2 152.92C711.626 152.92 713.602 153.683 715.128 155.208C716.722 156.733 717.52 158.64 717.52 160.928C717.52 163.216 716.757 165.123 715.232 166.648C713.706 168.104 711.696 168.832 709.2 168.832C706.634 168.832 704.589 168.104 703.064 166.648C701.538 165.123 700.776 163.216 700.776 160.928Z" fill="#3498DB"/>
</g>
</g>
<defs>
<filter id="filter0_d_17_19" x="291.352" y="86.464" width="430.167" height="95.88" filterUnits="userSpaceOnUse" color-interpolation-filters="sRGB">
<feFlood flood-opacity="0" result="BackgroundImageFix"/>
<feColorMatrix in="SourceAlpha" type="matrix" values="0 0 0 0 0 0 0 0 0 0 0 0 0 0 0 0 0 0 127 0" result="hardAlpha"/>
<feOffset dy="4"/>
<feGaussianBlur stdDeviation="2"/>
<feComposite in2="hardAlpha" operator="out"/>
<feColorMatrix type="matrix" values="0 0 0 0 0 0 0 0 0 0 0 0 0 0 0 0 0 0 0.25 0"/>
<feBlend mode="normal" in2="BackgroundImageFix" result="effect1_dropShadow_17_19"/>
<feBlend mode="normal" in="SourceGraphic" in2="effect1_dropShadow_17_19" result="shape"/>
</filter>
<clipPath id="clip0_17_19">
<rect width="725" height="249" fill="white"/>
</clipPath>
</defs>
</svg>
