<?xml version="1.0" encoding="UTF-8"?>
<svg id="Layer_1" data-name="Layer 1" xmlns="http://www.w3.org/2000/svg" viewBox="0 0 161.23 53.46">
  <defs>
    <style>
      .cls-1 {
        fill: #333;
        stroke: #333;
        stroke-miterlimit: 10;
      }

      .cls-2 {
        font-family: Pretendard-SemiBold, Pretendard;
        font-size: 14px;
        font-weight: 600;
      }

      .cls-3 {
        font-family: IntelOneMono-BoldItalic, 'Intel One Mono';
        font-size: 28.85px;
        font-style: italic;
        font-weight: 700;
      }
    </style>
  </defs>
  <path d="M33.79,26.33c-2.42-1.7-5.53-2.12-8.31-1.1-2.78,1.01-4.9,3.32-5.66,6.19-.76,2.86-.08,5.92,1.84,8.18,1.91,2.26,4.81,3.45,7.76,3.18,2.95-.27,5.58-1.97,7.05-4.55,1.47-2.58,1.58-5.71,.3-8.38-.15-.29-.17-.64-.07-.95,.11-.31,.33-.57,.63-.71,.3-.14,.64-.16,.95-.04,.31,.11,.56,.35,.69,.65,1.62,3.4,1.48,7.39-.39,10.66-1.86,3.28-5.21,5.44-8.97,5.78-3.76,.35-7.44-1.16-9.88-4.05-2.43-2.88-3.3-6.77-2.33-10.42,.97-3.64,3.67-6.58,7.21-7.87,3.54-1.28,7.49-.76,10.58,1.42,.55,.39,.68,1.16,.29,1.71-.39,.55-1.16,.68-1.71,.29h0Zm-5.24,13.6c2.18,0,4.18-1.22,5.16-3.16,.31-.6,.08-1.34-.53-1.65-.6-.31-1.34-.08-1.65,.53-.57,1.12-1.73,1.82-2.98,1.82s-2.41-.7-2.98-1.82c-.14-.3-.4-.53-.71-.63-.31-.11-.66-.08-.95,.07-.29,.15-.52,.41-.61,.73-.1,.32-.06,.66,.1,.95,.99,1.95,2.98,3.17,5.16,3.17h0Zm-3.19-8.22v-1.59c0-.68-.55-1.22-1.22-1.22s-1.23,.55-1.23,1.22v1.56c0,.68,.55,1.22,1.23,1.22s1.22-.55,1.22-1.22v.03Zm8.83-1.59c0-.68-.55-1.22-1.22-1.22s-1.22,.55-1.22,1.22v1.56c0,.68,.55,1.22,1.22,1.22s1.22-.55,1.22-1.22v-1.56Zm15.93-14.76v2.76h0c0,.32-.13,.64-.36,.87-.23,.23-.54,.36-.87,.36H21.91l-3.71,2.2c-.19,.11-.4,.17-.61,.17H9.42v22.77c0,.65,.26,1.27,.72,1.73s1.08,.72,1.73,.72H45.24c.65,0,1.27-.26,1.73-.72s.72-1.08,.72-1.73V22.96c0-.68,.55-1.23,1.23-1.23s1.22,.55,1.22,1.23v21.52c0,1.3-.52,2.55-1.44,3.46s-2.17,1.44-3.46,1.44H11.87c-2.71,0-4.9-2.19-4.9-4.9v-2.07h-1.56c-2.99,0-5.41-2.42-5.41-5.41V8.92C0,5.94,2.42,3.51,5.41,3.51H37.76c2.99,0,5.41,2.42,5.41,5.41v1.56h2.07c1.3,0,2.55,.51,3.46,1.44,.92,.92,1.44,2.16,1.44,3.46v-.03ZM11.86,10.46h28.86v-1.54c0-.79-.31-1.54-.87-2.09-.55-.56-1.31-.87-2.09-.87H5.41c-1.64,0-2.96,1.32-2.96,2.96v28.08c0,.78,.31,1.54,.87,2.09,.55,.56,1.31,.87,2.09,.87h1.56V15.38c0-2.71,2.19-4.9,4.9-4.9v-.03Zm35.8,4.9h0c0-.65-.26-1.27-.72-1.73s-1.08-.72-1.73-.72H11.87c-1.35,0-2.45,1.1-2.45,2.45v3.85h7.84s3.71-2.15,3.71-2.15c.19-.11,.4-.17,.61-.17h26.1v-1.54Z"/>
  <text class="cls-3" transform="translate(54.96 23.89)"><tspan x="0" y="0">Ryuhwa</tspan></text>
  <rect class="cls-1" x="54.5" y="35.01" width="105" height="0"/>
  <text class="cls-2" transform="translate(95.81 49.19)"><tspan x="0" y="0">안녕하세요!</tspan></text>
</svg>